<svg width="30" height="34" viewBox="0 0 30 34" fill="none" xmlns="http://www.w3.org/2000/svg">
<path d="M29.0335 13.9672L16.1835 0.833818C16.0286 0.677603 15.8443 0.553613 15.6412 0.468999C15.4381 0.384384 15.2202 0.34082 15.0002 0.34082C14.7802 0.34082 14.5623 0.384384 14.3592 0.468999C14.1561 0.553613 13.9718 0.677603 13.8169 0.833818L0.966859 13.9838C0.655921 14.2973 0.41035 14.6694 0.244406 15.0785C0.0784614 15.4876 -0.00454963 15.9257 0.000192274 16.3672V30.3338C-0.0010991 31.187 0.324814 32.0082 0.910817 32.6283C1.49682 33.2484 2.29829 33.6202 3.15019 33.6672H8.33353V18.6672C8.33353 18.2251 8.50912 17.8012 8.82168 17.4886C9.13424 17.1761 9.55817 17.0005 10.0002 17.0005H20.0002C20.4422 17.0005 20.8661 17.1761 21.1787 17.4886C21.4913 17.8012 21.6669 18.2251 21.6669 18.6672V33.6672H26.8502C27.7021 33.6202 28.5036 33.2484 29.0896 32.6283C29.6756 32.0082 30.0015 31.187 30.0002 30.3338V16.3672C30.0015 15.472 29.6549 14.6115 29.0335 13.9672Z" fill="#68C93E"/>
</svg>
