<svg width="40" height="40" viewBox="0 0 40 40" fill="none" xmlns="http://www.w3.org/2000/svg">
<rect x="9.04492" y="5" width="21.9549" height="21.1979" rx="3" fill="#FFB321"/>
<rect x="12.0732" y="17" width="6.8136" height="1.51413" rx="0.757067" fill="white"/>
<rect x="12.0732" y="20.0286" width="3.78533" height="1.51413" rx="0.757067" fill="white"/>
<path d="M22.672 8.4068V11.8136L20.0223 10.1102L17.3726 11.8136V8.4068V5H22.672V8.4068Z" fill="white"/>
<path d="M11.2343 24.5928L11.2346 24.5926C12.9585 23.4633 15.1127 23.1287 17.1178 23.6801L17.1184 23.6802L17.6005 23.8115C17.6006 23.8115 17.6007 23.8115 17.6008 23.8116C18.3908 24.0289 19.2213 24.0707 20.0306 23.9341C20.0306 23.9341 20.0306 23.9341 20.0306 23.9341L24.3444 23.2059L24.3445 23.2059C25.6001 22.9936 26.8529 23.5664 27.4786 24.6276L27.6179 24.8639L27.8403 24.7033L32.5463 21.3054L32.5464 21.3054L32.5513 21.3017C33.4133 20.6465 34.6298 20.7061 35.4181 21.405L26.4286 29.9042C25.1909 30.7758 23.6953 31.2429 22.1613 31.2356L14.4556 30.6916L14.4555 30.6916C13.6841 30.6375 12.9198 30.8731 12.3219 31.3512C12.3216 31.3515 12.3213 31.3517 12.321 31.352L11.2862 32.1635L10.0857 25.5335C10.4319 25.1809 10.8172 24.8654 11.2343 24.5928Z" fill="#FFC962" stroke="white" stroke-width="0.5"/>
<path d="M12.1071 32.3926L12.2516 33.2447L7.73405 34.0606L6 23.8159L10.5176 23L10.8607 25.0259L12.1071 32.3926Z" fill="#34DE6E"/>
</svg>
