<svg width="82" height="82" viewBox="0 0 82 82" fill="none" xmlns="http://www.w3.org/2000/svg">
<path d="M41.0003 0.166992C18.4603 0.166992 0.166992 18.4603 0.166992 41.0003C0.166992 63.5403 18.4603 81.8336 41.0003 81.8336C63.5403 81.8336 81.8336 63.5403 81.8336 41.0003C81.8336 18.4603 63.5403 0.166992 41.0003 0.166992ZM29.9345 58.5178L15.2753 43.8587C13.6828 42.2662 13.6828 39.6937 15.2753 38.1012C16.8678 36.5087 19.4403 36.5087 21.0328 38.1012L32.8337 49.8612L60.927 21.7678C62.5195 20.1753 65.092 20.1753 66.6845 21.7678C68.277 23.3603 68.277 25.9328 66.6845 27.5253L35.692 58.5178C34.1403 60.1103 31.527 60.1103 29.9345 58.5178Z" fill="#68C93E"/>
</svg>
