<svg width="24" height="24" viewBox="0 0 24 24" fill="none" xmlns="http://www.w3.org/2000/svg">
<path fill-rule="evenodd" clip-rule="evenodd" d="M18.0003 2H18H6.00031V5.37237C6.0001 5.35937 6 5.34636 6 5.33333V2C5.20435 2 4.44129 2.35119 3.87868 2.97631C3.31607 3.60143 3 4.44928 3 5.33333V18.6667C3 19.5507 3.31607 20.3986 3.87868 21.0237C4.44129 21.6488 5.20435 22 6 22H18C18.7956 22 19.5587 21.6488 20.1213 21.0237C20.6839 20.3986 21 19.5507 21 18.6667V5.33333C21 4.44928 20.6839 3.60143 20.1213 2.97631C19.5588 2.35127 18.7958 2.00009 18.0003 2ZM7.99995 6.44446C7.44766 6.44446 6.99995 6.89217 6.99995 7.44446V7.66668C6.99995 8.21897 7.44766 8.66668 7.99995 8.66668H15.9999C16.5522 8.66668 16.9999 8.21896 16.9999 7.66668V7.44446C16.9999 6.89217 16.5522 6.44446 15.9999 6.44446H7.99995ZM6.99995 11.8889C6.99995 11.3366 7.44766 10.8889 7.99995 10.8889H15.9999C16.5522 10.8889 16.9999 11.3366 16.9999 11.8889V12.1111C16.9999 12.6634 16.5522 13.1111 15.9999 13.1111H7.99995C7.44766 13.1111 6.99995 12.6634 6.99995 12.1111V11.8889ZM7.99995 15.3333C7.44766 15.3333 6.99995 15.7811 6.99995 16.3333V16.5556C6.99995 17.1079 7.44766 17.5556 7.99995 17.5556H15.9999C16.5522 17.5556 16.9999 17.1079 16.9999 16.5556V16.3333C16.9999 15.7811 16.5522 15.3333 15.9999 15.3333H7.99995Z" fill="#C4C4C4"/>
</svg>
