<svg width="98" height="98" viewBox="0 0 98 98" fill="none" xmlns="http://www.w3.org/2000/svg">
<path d="M49 91.4667C76.062 91.4667 98 81.4117 98 69.0083C98 56.6049 76.062 46.55 49 46.55C21.938 46.55 0 56.6049 0 69.0083C0 81.4117 21.938 91.4667 49 91.4667Z" fill="black" fill-opacity="0.04"/>
<path d="M36.3436 41.2417C35.6663 41.2417 35.1167 40.6871 35.1167 40.0035V32.2308C35.1167 27.3 37.7452 22.7054 41.9761 20.2405C43.4441 19.3862 45.1942 19.3868 46.659 20.2405C48.1246 21.095 49 22.6249 49 24.3329V33.2802C49 33.9638 48.4505 34.5184 47.7731 34.5184C47.0958 34.5184 46.5462 33.9638 46.5462 33.2802V24.3329C46.5462 23.5196 46.1293 22.7917 45.4319 22.3847C44.7339 21.9785 43.9008 21.9785 43.2027 22.3847C39.7283 24.4094 37.5702 28.1819 37.5702 32.2308V40.0036C37.5704 40.6872 37.0208 41.2417 36.3436 41.2417Z" fill="#838383"/>
<path d="M63.4823 16.7756L59.7257 11.6656L26.1333 28.2548L24.8583 28.1631L20.0083 73.3695L27.1543 74.8275L33.8171 76.4015L45.4911 85.6436L72.6834 65.7046L75.4463 18.4038L63.4823 16.7756Z" fill="#FFDCA9"/>
<path d="M20.0083 73.3695L60.8417 59.1711L59.7256 11.6656L24.8583 28.1631L20.0083 73.3695Z" fill="#DCA34F"/>
<path d="M24.8583 28.1631L36.1879 27.3692L33.8171 76.4015L20.0083 73.3695L24.8583 28.1631Z" fill="#F3CC64"/>
<path d="M36.1879 27.3692L43.4876 32.6667L45.4912 85.6436L33.8172 76.4015L36.1879 27.3692Z" fill="#DBB551"/>
<path d="M45.4911 85.6436L78.4 69.0083L75.4462 18.4038L43.4875 32.6667L45.4911 85.6436Z" fill="#F3CC64"/>
<path d="M55.5333 37.1583C56.4354 37.1583 57.1667 36.2443 57.1667 35.1167C57.1667 33.9891 56.4354 33.075 55.5333 33.075C54.6313 33.075 53.9 33.9891 53.9 35.1167C53.9 36.2443 54.6313 37.1583 55.5333 37.1583Z" fill="#D07C3F"/>
<path d="M66.9667 32.2583C67.8687 32.2583 68.6 31.3443 68.6 30.2167C68.6 29.0891 67.8687 28.175 66.9667 28.175C66.0646 28.175 65.3333 29.0891 65.3333 30.2167C65.3333 31.3443 66.0646 32.2583 66.9667 32.2583Z" fill="#D07C3F"/>
<path d="M67.3731 28.9917C68.0505 28.9917 68.6 29.5463 68.6 30.2298V38.0026C68.6 42.9334 65.9713 47.5279 61.7406 49.9928C60.2726 50.8472 58.5225 50.8465 57.0577 49.9928C55.5921 49.1383 54.7167 47.6084 54.7167 45.9004V35.3199C54.7167 34.6363 55.2662 34.0818 55.9434 34.0818C56.6208 34.0818 57.1704 34.6365 57.1704 35.3199V45.9004C57.1704 46.7138 57.5872 47.4416 58.2846 47.8486C58.9827 48.2548 59.8158 48.2548 60.5138 47.8486C63.9883 45.8239 66.1464 42.0515 66.1464 38.0026V30.2298C66.1464 29.5463 66.6959 28.9917 67.3731 28.9917Z" fill="black" fill-opacity="0.08"/>
<path d="M67.3731 28.9917C68.0505 28.9917 68.6 29.5463 68.6 30.2298V38.0026C68.6 42.9334 66.3797 45.8946 62.1489 48.3594C60.6809 49.2139 58.9309 49.2131 57.4661 48.3594C56.0005 47.505 55.125 45.9751 55.125 44.2671L54.7167 35.3199C54.7167 34.6363 55.2662 34.0818 55.9434 34.0818C56.6208 34.0818 57.1704 34.6365 57.1704 35.3199L57.5787 44.2671C57.5787 45.0804 57.9956 45.8083 58.693 46.2153C59.391 46.6215 60.2241 46.6215 60.9222 46.2153C64.3966 44.1906 66.1464 42.0515 66.1464 38.0026V30.2298C66.1464 29.5463 66.6959 28.9917 67.3731 28.9917Z" fill="white"/>
</svg>
