<svg width="360" height="182" viewBox="0 0 360 182" fill="none" xmlns="http://www.w3.org/2000/svg">
<path d="M360 164H-1V214H360V164Z" fill="#FFE0A5"/>
<path d="M183.619 164H318C318 164 296.239 97.7047 281.169 97.02C266.099 96.3352 264.093 113.446 242.656 121.967C229.99 127.002 213.315 120.858 194.942 131.797C179.009 141.284 183.619 164 183.619 164Z" fill="#FFFCF6"/>
<path d="M332.102 23.7996H287.749V164.369H332.102V23.7996Z" fill="#FFD78B"/>
<path d="M332.104 23.7996H309.926V163.982H332.104V23.7996Z" fill="#FFE7BA"/>
<path d="M308.476 10H292.813V23.7996H308.476V10Z" fill="#FFD78B"/>
<path d="M308.476 10H304.744V23.7996H308.476V10Z" fill="#FEAB0C"/>
<path d="M284.052 23.7996V22.9956H333.4V23.7996" fill="#FFB321"/>
<path d="M300.26 29.8184H296.504V37.7344H300.26V29.8184Z" fill="#FFB321"/>
<path d="M322.629 29.8184H318.874V37.7344H322.629V29.8184Z" fill="#FFCE70"/>
<path d="M322.629 45.5359H318.874V53.4519H322.629V45.5359Z" fill="#FFCE70"/>
<path d="M322.629 61.7286H318.874V69.6447H322.629V61.7286Z" fill="#FFCE70"/>
<path d="M322.629 77.9196H318.874V85.8356H322.629V77.9196Z" fill="#FFCE70"/>
<path d="M322.629 93.6483H318.874V101.564H322.629V93.6483Z" fill="#FFCE70"/>
<path d="M322.629 109.439H318.874V117.355H322.629V109.439Z" fill="#FFCE70"/>
<path d="M322.629 125.438H318.874V133.354H322.629V125.438Z" fill="#FFCE70"/>
<path d="M300.26 45.7762H296.504V53.6923H300.26V45.7762Z" fill="#FFB321"/>
<path d="M300.26 61.7343H296.504V69.6503H300.26V61.7343Z" fill="#FFB321"/>
<path d="M300.26 77.6903H296.504V85.6064H300.26V77.6903Z" fill="#FFB321"/>
<path d="M300.26 93.6483H296.504V101.564H300.26V93.6483Z" fill="#FFB321"/>
<path d="M300.26 109.604H296.504V117.52H300.26V109.604Z" fill="#FFB321"/>
<path d="M300.26 125.562H296.504V133.478H300.26V125.562Z" fill="#FFB321"/>
<path d="M362.061 102.497H329.451V164.385H362.061V102.497Z" fill="#FFD78B"/>
<path d="M362.059 102.497H346.77V164.385H362.059V102.497Z" fill="#FFE7BA"/>
<path d="M339.22 108.321H336.287V115.444H339.22V108.321Z" fill="#FFB321"/>
<path d="M339.22 136.2H336.287V143.323H339.22V136.2Z" fill="#FFB321"/>
<path d="M339.22 122.366H336.287V129.49H339.22V122.366Z" fill="#FFB321"/>
<path d="M352.95 108.321H350.017V115.444H352.95V108.321Z" fill="#FFCE70"/>
<path d="M359.31 108.321H356.378V115.444H359.31V108.321Z" fill="#FFCE70"/>
<path d="M352.95 121.836H350.017V128.96H352.95V121.836Z" fill="#FFCE70"/>
<path d="M359.31 121.836H356.378V128.96H359.31V121.836Z" fill="#FFCE70"/>
<path d="M352.95 135.354H350.017V142.478H352.95V135.354Z" fill="#FFCE70"/>
<path d="M359.31 135.354H356.378V142.478H359.31V135.354Z" fill="#FFCE70"/>
<path d="M364.512 101H327V102.552H364.512V101Z" fill="#FFB321"/>
<path d="M37.4781 96.2004H1.75818V163.992H37.4781V96.2004Z" fill="#FFD78B"/>
<path d="M37.4779 96.2004H20.7291V163.992H37.4779V96.2004Z" fill="#FFE7BA"/>
<path d="M12.4601 102.58H9.2478V110.383H12.4601V102.58Z" fill="#FFB321"/>
<path d="M12.4601 133.119H9.2478V140.922H12.4601V133.119Z" fill="#FFB321"/>
<path d="M12.4601 117.965H9.2478V125.768H12.4601V117.965Z" fill="#FFB321"/>
<path d="M27.4994 102.58H24.2871V110.383H27.4994V102.58Z" fill="#FFB321"/>
<path d="M34.4668 102.58H31.2545V110.383H34.4668V102.58Z" fill="#FFCE70"/>
<path d="M27.4994 117.386H24.2871V125.19H27.4994V117.386Z" fill="#FFCE70"/>
<path d="M34.4668 117.386H31.2545V125.19H34.4668V117.386Z" fill="#FFCE70"/>
<path d="M27.4994 132.193H24.2871V139.996H27.4994V132.193Z" fill="#FFCE70"/>
<path d="M34.4668 132.193H31.2545V139.996H34.4668V132.193Z" fill="#FFCE70"/>
<path d="M40.1643 94.5605H-0.92627V96.2587H40.1643V94.5605Z" fill="#62A53A"/>
<path d="M89.8735 61.3579H35.793V163.994H89.8735V61.3579Z" fill="#FFD78B"/>
<path d="M89.8717 61.3579H64.5155V163.994H89.8717V61.3579Z" fill="#FFE7BA"/>
<path d="M51.9933 71.0154H47.1317V82.8293H51.9933V71.0154Z" fill="#FFB321"/>
<path d="M51.9933 117.251H47.1317V129.065H51.9933V117.251Z" fill="#FFB321"/>
<path d="M51.9932 94.309H47.1316V106.123H51.9932V94.309Z" fill="#FFB321"/>
<path d="M74.7608 71.0154H69.8992V82.8293H74.7608V71.0154Z" fill="#FFCE70"/>
<path d="M85.3104 71.0154H80.4489V82.8293H85.3104V71.0154Z" fill="#FFCE70"/>
<path d="M74.7608 93.4316H69.8992V105.246H74.7608V93.4316Z" fill="#FFCE70"/>
<path d="M85.3104 93.4316H80.4489V105.246H85.3104V93.4316Z" fill="#FFCE70"/>
<path d="M74.7608 115.848H69.8992V127.662H74.7608V115.848Z" fill="#FFCE70"/>
<path d="M85.3104 115.848H80.4489V127.662H85.3104V115.848Z" fill="#FFCE70"/>
<path d="M93.9385 58.8745H31.7278V61.4462H93.9385V58.8745Z" fill="#FFB321"/>
<path d="M68 164H163C163 164 159.323 155.67 149.969 156.372C140.617 157.073 136.989 157.733 133.759 152.705C130.528 147.678 129.373 144.527 123.068 143.141C116.763 141.756 104.783 150.933 99.4228 153.952C94.064 156.971 88.5736 155.732 84.6387 155.445C77.9802 154.957 73.4641 157.552 68 164Z" fill="#FFFCF5"/>
<path d="M119.957 103.647H-4.26746V199.355H119.957V103.647Z" fill="#FFD483"/>
<path d="M119.957 103.647H67.0315V199.355H119.957V103.647Z" fill="#FFCE71"/>
<path d="M138.691 124.111H-23L-9.47283 86H125.162L138.691 124.111Z" fill="#FEE4B2"/>
<path d="M92.4215 124.111H69.2857L67.0315 86H86.4084L92.4215 124.111Z" fill="#FFD483"/>
<path d="M138.691 124.111H115.555L105.785 86H125.162L138.691 124.111Z" fill="#FFD483"/>
<path d="M0.133892 124.111H-23L-9.47283 86H9.41563L0.133892 124.111Z" fill="#FFD483"/>
<path d="M46.1519 124.111H23.2678L28.7831 86H47.9102L46.1519 124.111Z" fill="#FFD483"/>
<path d="M0.133911 124.111C0.133911 130.5 5.31297 135.679 11.7018 135.679C18.0906 135.679 23.2697 130.5 23.2697 124.111H0.133911Z" fill="#FFDD9C"/>
<path d="M46.1519 124.111C46.1519 130.5 51.3309 135.679 57.7197 135.679C64.1086 135.679 69.2876 130.5 69.2876 124.111H46.1519Z" fill="#FFDD9C"/>
<path d="M69.2858 124.111C69.2858 130.5 74.4648 135.679 80.8536 135.679C87.2425 135.679 92.4215 130.5 92.4215 124.111H69.2858Z" fill="#FFC555"/>
<path d="M92.4215 124.111C92.4215 130.5 97.6006 135.679 103.989 135.679C110.378 135.679 115.557 130.5 115.557 124.111H92.4215Z" fill="#FFDD9C"/>
<path d="M115.555 124.111C115.555 130.5 120.734 135.679 127.123 135.679C133.512 135.679 138.691 130.5 138.691 124.111H115.555Z" fill="#FFC555"/>
<path d="M23.0179 124.111C23.0179 130.5 28.197 135.679 34.5858 135.679C40.9747 135.679 46.1537 130.5 46.1537 124.111H23.0179Z" fill="#FFC555"/>
<path d="M-23 124.111C-23 130.5 -17.8209 135.679 -11.4321 135.679C-5.04329 135.679 0.135771 130.5 0.135771 124.111H-23Z" fill="#5F9939"/>
<path d="M53.3183 145.996H9.32166V184.237H53.3183V145.996Z" fill="#FFD483"/>
<path d="M53.3203 145.996H49.3998H33.3817H29.2603H13.0224H9.07941H8.90283V184.237H9.07941H13.0224H29.2603H33.3817H49.3998H53.3203H53.5213V145.996H53.3203ZM49.3979 150.683V162.771H33.3799V150.683H49.3979ZM29.2603 150.683V162.771H13.0224V150.683H29.2603ZM13.0243 179.548V167.46H29.2622V179.548H13.0243ZM33.3817 179.548V167.46H49.3998V179.548H33.3817Z" fill="#FFC555"/>
<path d="M73.7584 139.786H113.042V199.355H73.7584" fill="#FFC555"/>
<path d="M107.233 176.973C108.664 176.973 109.824 175.813 109.824 174.382C109.824 172.952 108.664 171.792 107.233 171.792C105.803 171.792 104.643 172.952 104.643 174.382C104.643 175.813 105.803 176.973 107.233 176.973Z" fill="#FFB321"/>
<rect width="360" height="182" fill="white" fill-opacity="0.7"/>
</svg>
