<svg width="35" height="30" viewBox="0 0 35 30" fill="none" xmlns="http://www.w3.org/2000/svg">
<path d="M26.5838 7.90546C26.6465 6.48704 25.5555 5.28671 24.1471 5.22448C24.0801 5.22152 24.0138 5.22202 23.9479 5.22423C23.948 5.22139 23.9484 5.21859 23.9485 5.2157C24.0063 3.90775 23.0003 2.8009 21.7016 2.74351C21.294 2.72551 20.9061 2.81306 20.5638 2.98202C20.196 1.56202 18.945 0.486747 17.4127 0.419042C15.8805 0.351337 14.5395 1.31207 14.0478 2.6941C13.7217 2.4956 13.3431 2.37418 12.9356 2.35617C11.6368 2.29878 10.5371 3.31259 10.4793 4.62054C10.4792 4.62339 10.4793 4.6262 10.4792 4.62909C10.4137 4.62107 10.3477 4.61473 10.2807 4.61176C8.8723 4.54953 7.67971 5.64892 7.61704 7.06738C7.56904 8.15361 8.198 9.11129 9.12761 9.52852C9.05416 9.76317 9.00911 10.011 8.99773 10.2685C8.92749 11.8581 10.1502 13.2034 11.7287 13.2732C12.5646 13.3101 13.3326 12.9818 13.8806 12.4288C14.4115 13.5223 15.5041 14.2967 16.797 14.3538C18.0898 14.4109 19.2465 13.7359 19.8717 12.6935C20.3689 13.2927 21.1049 13.6875 21.9408 13.7244C23.5193 13.7942 24.8559 12.562 24.9262 10.9723C24.9375 10.7148 24.9145 10.464 24.8621 10.2238C25.8248 9.89017 26.5358 8.99173 26.5838 7.90546Z" fill="#4CEC82"/>
<path d="M19.9344 12.6831C19.5255 13.3591 18.8888 13.879 18.1353 14.1418C17.7253 14.7748 17.2735 15.5213 16.9726 16.1627C16.8929 16.3324 16.6469 16.3215 16.5826 16.1455C16.3394 15.4801 15.9553 14.6966 15.6026 14.0299C14.8752 13.7016 14.287 13.1276 13.9392 12.4181C13.6169 12.7404 13.2181 12.9848 12.7746 13.1247C13.4961 14.7806 14.3122 17.3084 14.5688 20.6396C14.6009 21.0559 14.9405 21.3826 15.3585 21.401L17.7283 21.5057C18.1463 21.5242 18.5134 21.2288 18.5821 20.8169C19.1315 17.5214 20.1674 15.0754 21.0322 13.4896C20.6027 13.3111 20.227 13.0325 19.9344 12.6831Z" fill="#98DB7C"/>
<path d="M15.5511 13.9872C14.8371 13.6673 14.2597 13.1082 13.9181 12.4172C13.6019 12.7309 13.2107 12.9687 12.7754 13.1048C12.8676 13.3147 12.9614 13.5392 13.0553 13.7776L16.172 15.2316C15.9782 14.8088 15.7592 14.3776 15.5511 13.9872Z" fill="#82D361"/>
<path d="M30.8379 18.6114C31.6203 17.7786 31.5843 16.4737 30.7574 15.6969C30.7181 15.6599 30.6773 15.6254 30.636 15.5922C30.6375 15.5905 30.6392 15.589 30.6408 15.5873C31.3623 14.8194 31.329 13.6161 30.5665 12.8997C30.3272 12.6749 30.0446 12.5249 29.747 12.4484C30.2676 11.3888 30.0682 10.0762 29.1686 9.23106C28.269 8.38587 26.9466 8.26865 25.9214 8.85415C25.8266 8.56194 25.6592 8.28919 25.4199 8.06439C24.6574 7.34799 23.4544 7.38978 22.733 8.15768C22.7314 8.15935 22.73 8.16111 22.7284 8.16281C22.6927 8.12359 22.6557 8.08509 22.6164 8.04813C21.7895 7.27124 20.4849 7.31651 19.7025 8.14929C19.1033 8.78703 18.9847 9.70146 19.3331 10.4438C19.1652 10.5485 19.0077 10.6761 18.8657 10.8272C17.9888 11.7605 18.0292 13.223 18.956 14.0937C19.4467 14.5548 20.0877 14.7574 20.7123 14.7074C20.4626 15.6533 20.7231 16.6991 21.4821 17.4122C22.2412 18.1254 23.3012 18.3202 24.2297 18.0121C24.2187 18.6386 24.4608 19.2657 24.9516 19.7268C25.8783 20.5975 27.3404 20.5467 28.2173 19.6134C28.3593 19.4622 28.4769 19.2971 28.5709 19.1229C29.3335 19.4245 30.2388 19.2492 30.8379 18.6114Z" fill="#34DE6E"/>
<path d="M24.2754 18.0398C23.6712 18.2378 23.0099 18.2211 22.4121 17.9862C21.8298 18.1574 21.1624 18.376 20.6423 18.6095C20.5047 18.6713 20.3602 18.5356 20.4133 18.3944C20.614 17.8607 20.7906 17.1811 20.9251 16.5892C20.6535 16.0072 20.5956 15.3483 20.7556 14.7329C20.3898 14.7605 20.0182 14.7004 19.6741 14.5531C19.2457 15.9422 18.4176 17.913 16.8266 20.0806C16.6277 20.3516 16.6636 20.7291 16.909 20.9596L18.3004 22.2668C18.5458 22.4974 18.9248 22.5097 19.1828 22.2944C21.2471 20.5714 23.1625 19.6221 24.5222 19.108C24.3537 18.7737 24.2706 18.4066 24.2754 18.0398Z" fill="#98DB7C"/>
<path d="M20.9161 16.5361C20.6482 15.9663 20.5891 15.3221 20.7432 14.7212C20.3857 14.7468 20.0221 14.6867 19.6851 14.5414C19.6313 14.7178 19.5707 14.904 19.503 15.0988L20.6421 17.6213C20.7457 17.2616 20.8383 16.8835 20.9161 16.5361Z" fill="#82D361"/>
<path d="M4.66343 17.327C4.10238 19.0932 1.50006 18.5882 1.50006 20.2868C1.50006 21.8383 6.16934 22.8002 7.68669 22.8803L14.0118 23.0009C18.0638 23.0009 21 21.8683 21 18.465C21 15.0616 18.0044 11.376 13.7214 11.376C9.67623 11.376 5.6955 14.0769 4.66343 17.327Z" fill="#FFC962"/>
<path d="M3.02329 18.9313C3.28826 18.8197 3.59657 18.8779 3.79797 19.0841C4.86074 20.1731 8.27019 20.8326 9.513 20.8969L15.6842 21.0123C17.4898 21.0123 19.0681 20.7859 20.2502 20.2296C19.4442 22.2753 16.94 23.0005 13.7076 23.0005L7.53644 22.8849C6.05616 22.8085 1.50031 21.8872 1.50031 20.4016C1.50031 19.5174 2.25056 19.2567 3.02329 18.9313Z" fill="#FFC962"/>
<path d="M2.60078 11.3308C2.82399 11.6385 2.78064 12.0111 2.70568 12.2681C2.64827 12.465 2.71842 12.6768 2.88207 12.7975L5.68592 14.8562C6.02728 15.1069 6.10207 15.5913 5.85254 15.9357C5.60319 16.2799 5.12465 16.3527 4.78644 16.0977L2.0084 14.0034C1.84558 13.8813 1.62518 13.877 1.45707 13.9913C1.23749 14.1409 0.899605 14.2945 0.543188 14.1706C0.0759077 14.0084 -0.120833 13.4831 0.0757422 13.0242C0.230289 12.6635 0.562217 12.4699 0.899771 12.4699C0.972411 12.4699 1.0343 12.4331 1.07268 12.3791C1.1119 12.326 1.12795 12.2552 1.10627 12.185C1.00517 11.8587 1.08807 11.4796 1.38145 11.2224C1.75474 10.8947 2.30806 10.9277 2.60078 11.3308Z" fill="#FFB321"/>
<path d="M13.2024 21.4836C12.0155 23.1951 9.66604 23.504 7.95483 22.1738C7.14969 21.5479 6.66079 20.6952 6.35366 19.6814C5.9456 18.3348 5.34803 17.2494 4.35033 16.2803C4.09787 16.035 4.05095 15.6423 4.24266 15.3661L5.00595 14.2655C5.19749 13.9891 5.56556 13.9189 5.86206 14.1004C7.03426 14.8179 8.19143 15.0967 9.52715 15.1056C10.5326 15.1122 11.4476 15.3507 12.2528 15.9766C13.964 17.3066 14.3891 19.7724 13.2024 21.4836Z" fill="#FFC962"/>
<path d="M4.24246 15.2777L4.99887 14.1644C5.05991 14.0746 5.17598 14.0294 5.30676 14.0099C5.65645 13.958 6.0038 14.1136 6.23626 14.4006C7.0278 15.378 7.79358 16.66 8.10949 17.7247C8.41386 18.7501 8.89852 19.6128 9.69641 20.2459C10.8589 21.1683 12.3187 21.3113 13.5007 20.7523C13.4009 21.0004 13.2751 21.2399 13.1213 21.4662C11.9453 23.1972 9.61697 23.5099 7.92118 22.1642C7.12329 21.5312 6.63864 20.6684 6.33443 19.6431C5.93005 18.281 5.33786 17.183 4.34915 16.2025C4.09897 15.9546 4.05247 15.5573 4.24246 15.2777Z" fill="#FFC962"/>
<path d="M1.81806 21.0001H29.4231C29.8751 21.0001 30.2415 21.35 30.2415 21.7817C30.2415 22.2134 29.8751 22.5633 29.4231 22.5633H27.8231C27.6192 22.5633 27.4353 22.6812 27.3584 22.8617L27.0782 23.5165C26.8163 24.1289 26.1925 24.5293 25.4998 24.5293H5.74143C5.04872 24.5293 4.42494 24.1289 4.16302 23.5165L3.88282 22.8617C3.80585 22.6812 3.62202 22.5633 3.41811 22.5633H1.81806C1.36606 22.5633 0.999739 22.2134 0.999739 21.7817C0.999739 21.35 1.36606 21.0001 1.81806 21.0001Z" fill="#48F382"/>
<rect x="20.75" y="11.75" width="12.5" height="17.9545" rx="2.25" fill="#FFB321" stroke="white" stroke-width="0.5"/>
<rect x="22.9203" y="18.5454" width="1.09091" height="1.09091" rx="0.545455" fill="white"/>
<rect x="22.9203" y="15.2727" width="1.09091" height="1.09091" rx="0.545455" fill="white"/>
<rect x="22.9203" y="21.8182" width="1.09091" height="1.09091" rx="0.545455" fill="white"/>
<rect x="22.9203" y="25.0909" width="1.09091" height="1.09091" rx="0.545455" fill="white"/>
<rect x="25.3636" y="18.5454" width="6.54545" height="1.09091" rx="0.545455" fill="white"/>
<rect x="25.3636" y="15.2727" width="5.45455" height="1.09091" rx="0.545455" fill="white"/>
<rect x="25.3636" y="21.8182" width="4.36364" height="1.09091" rx="0.545455" fill="white"/>
<rect x="25.3636" y="25.0909" width="5.45455" height="1.09091" rx="0.545455" fill="white"/>
</svg>
