<svg width="172" height="56" viewBox="0 0 172 56" fill="none" xmlns="http://www.w3.org/2000/svg">
<path d="M66.625 8.71777H13.2554C11.0462 8.71777 9.25537 10.5086 9.25537 12.7178V51.9999C9.25537 54.209 11.0462 55.9999 13.2554 55.9999H66.625C68.8341 55.9999 70.625 54.209 70.625 51.9999V12.7178C70.625 10.5086 68.8341 8.71777 66.625 8.71777Z" fill="#34DE6E"/>
<path d="M79.8792 18.8278H0L6.68274 0H73.1964L79.8792 18.8278Z" fill="#FFD483"/>
<path d="M11.4287 18.8278H0L6.68274 0H16.0141L11.4287 18.8278Z" fill="#FFB321"/>
<path d="M34.1627 18.8278H22.8584L25.5831 0H35.0314L34.1627 18.8278Z" fill="#FFB321"/>
<path d="M57.0209 18.8278H45.5923L44.4786 0H54.0513L57.0209 18.8278Z" fill="#FFB321"/>
<path d="M79.8794 18.8278H68.4507L63.624 0H73.1966L79.8794 18.8278Z" fill="#FFB321"/>
<path d="M11.4288 18.8278C11.4288 21.984 13.9874 24.5426 17.1436 24.5426C20.2999 24.5426 22.8584 21.984 22.8584 18.8278H11.4288Z" fill="#FFD483"/>
<path d="M22.734 18.8278C22.734 21.984 25.2926 24.5426 28.4488 24.5426C31.605 24.5426 34.1636 21.984 34.1636 18.8278H22.734Z" fill="#FFB321"/>
<path d="M34.1627 18.8278C34.1627 21.984 36.7213 24.5426 39.8775 24.5426C43.0337 24.5426 45.5923 21.984 45.5923 18.8278H34.1627Z" fill="#FFD483"/>
<path d="M45.5922 18.8278C45.5922 21.984 48.1507 24.5426 51.307 24.5426C54.4632 24.5426 57.0218 21.984 57.0218 18.8278H45.5922Z" fill="#FFB321"/>
<path d="M57.021 18.8278C57.021 21.984 59.5796 24.5426 62.7358 24.5426C65.892 24.5426 68.4506 21.984 68.4506 18.8278H57.021Z" fill="#FFD483"/>
<path d="M68.4504 18.8278C68.4504 21.984 71.009 24.5426 74.1652 24.5426C77.3215 24.5426 79.88 21.984 79.88 18.8278H68.4504Z" fill="#FFB321"/>
<path d="M0 18.8278C0 21.984 2.55858 24.5426 5.7148 24.5426C8.87103 24.5426 11.4296 21.984 11.4296 18.8278H0Z" fill="#FFB321"/>
<path d="M31.627 48.9726C31.627 48.9726 39.8848 50.5992 45.137 45.3477C50.3891 40.0962 48.7618 31.8375 48.7618 31.8375L31.627 48.9726Z" fill="#4DF486"/>
<path d="M49 32.0755C49 32.0755 40.7422 30.4489 35.49 35.7006C30.2378 40.9523 31.8652 49.2106 31.8652 49.2106L49 32.0755Z" fill="#4DF486"/>
<path d="M31.627 49.2106C31.627 49.2106 39.8554 48.7944 43.6059 42.3488C47.3564 35.9032 43.8644 28.1801 43.8644 28.1801L31.627 49.2106Z" fill="#6CFC9D"/>
<path d="M43.5138 41.1748C43.5138 41.8337 43.1356 42.2877 42.3953 42.2877L38.6015 42.3026V42.3901C38.6015 43.0782 39.236 43.4589 40.0827 43.4589C40.5212 43.4589 41.0198 43.3415 41.5794 43.0925C42.0178 42.9018 42.3806 42.9167 42.6979 43.1366C43.0152 43.3565 43.1818 43.6489 43.1818 44.0154C43.1818 44.4252 42.9402 44.7625 42.4563 45.0407C41.8666 45.3773 41.0352 45.5531 39.9924 45.5531C38.9649 45.5531 38.1028 45.2599 37.408 44.6892C36.728 44.1036 36.3351 43.3565 36.244 42.4634C36.1838 41.7312 36.1838 41.0723 36.244 40.4867C36.3344 39.5346 36.7126 38.7583 37.3779 38.1876C38.058 37.6162 38.9047 37.3237 39.9167 37.3237C40.9897 37.3237 41.8512 37.6461 42.5165 38.2758C43.1818 38.9055 43.5138 39.7694 43.5138 40.8389V41.1748ZM41.1256 40.7357C41.2313 40.7357 41.2769 40.6774 41.2769 40.56C41.2923 39.7986 40.7929 39.2713 39.9616 39.2713C39.0546 39.2713 38.6015 39.8427 38.6015 40.7357H41.1256Z" fill="white"/>
<path d="M103.372 19.596C103.372 20.604 103.12 21.5373 102.616 22.396C102.112 23.236 101.365 23.9173 100.376 24.44C99.3867 24.944 98.1827 25.196 96.764 25.196C95.364 25.196 94.1133 24.9627 93.012 24.496C91.9107 24.0107 91.024 23.32 90.352 22.424C89.6987 21.528 89.3253 20.4827 89.232 19.288H93.432C93.5253 20.0907 93.8427 20.7627 94.384 21.304C94.944 21.8267 95.6813 22.088 96.596 22.088C97.4173 22.088 98.0427 21.8733 98.472 21.444C98.92 20.996 99.144 20.4267 99.144 19.736C99.144 19.12 98.9667 18.616 98.612 18.224C98.2573 17.8133 97.8093 17.4867 97.268 17.244C96.7267 17.0013 95.98 16.7213 95.028 16.404C93.796 15.9933 92.788 15.592 92.004 15.2C91.22 14.7893 90.548 14.2013 89.988 13.436C89.4467 12.6707 89.176 11.672 89.176 10.44C89.176 8.74133 89.7827 7.40667 90.996 6.436C92.228 5.44667 93.852 4.952 95.868 4.952C97.9587 4.952 99.62 5.456 100.852 6.464C102.103 7.472 102.812 8.816 102.98 10.496H98.724C98.612 9.78667 98.3133 9.208 97.828 8.76C97.3427 8.29333 96.68 8.06 95.84 8.06C95.112 8.06 94.524 8.256 94.076 8.648C93.628 9.02133 93.404 9.572 93.404 10.3C93.404 10.8787 93.572 11.364 93.908 11.756C94.2627 12.1293 94.7013 12.4373 95.224 12.68C95.7653 12.9227 96.4933 13.1933 97.408 13.492C98.6773 13.94 99.704 14.36 100.488 14.752C101.291 15.144 101.972 15.732 102.532 16.516C103.092 17.3 103.372 18.3267 103.372 19.596ZM114.568 21.612V25H112.496C110.76 25 109.426 24.58 108.492 23.74C107.578 22.9 107.12 21.5 107.12 19.54V12.82H104.964V9.488H107.12V5.652H111.068V9.488H114.54V12.82H111.068V19.596C111.068 20.3427 111.218 20.8653 111.516 21.164C111.815 21.4627 112.319 21.612 113.028 21.612H114.568ZM124.577 9.292C126.089 9.292 127.443 9.60933 128.637 10.244C129.851 10.8787 130.803 11.8027 131.493 13.016C132.184 14.2107 132.529 15.62 132.529 17.244C132.529 18.868 132.184 20.2773 131.493 21.472C130.803 22.6667 129.851 23.5907 128.637 24.244C127.443 24.8787 126.089 25.196 124.577 25.196C123.065 25.196 121.703 24.8787 120.489 24.244C119.295 23.5907 118.352 22.6667 117.661 21.472C116.971 20.2773 116.625 18.868 116.625 17.244C116.625 15.62 116.971 14.2107 117.661 13.016C118.352 11.8027 119.295 10.8787 120.489 10.244C121.703 9.60933 123.065 9.292 124.577 9.292ZM124.577 12.708C123.476 12.708 122.543 13.1 121.777 13.884C121.012 14.6493 120.629 15.7693 120.629 17.244C120.629 18.7187 121.012 19.848 121.777 20.632C122.543 21.3973 123.476 21.78 124.577 21.78C125.679 21.78 126.612 21.3973 127.377 20.632C128.143 19.848 128.525 18.7187 128.525 17.244C128.525 15.7693 128.143 14.6493 127.377 13.884C126.612 13.1 125.679 12.708 124.577 12.708ZM144.391 25L139.267 18.224V25H135.319V4.28H139.267V15.928L144.363 9.488H149.039L142.515 17.216L149.207 25H144.391ZM150.676 5.036C150.676 4.40133 150.9 3.888 151.348 3.496C151.796 3.08533 152.384 2.88 153.112 2.88C153.84 2.88 154.428 3.08533 154.876 3.496C155.324 3.888 155.548 4.40133 155.548 5.036C155.548 5.652 155.324 6.16533 154.876 6.576C154.428 6.968 153.84 7.164 153.112 7.164C152.384 7.164 151.796 6.968 151.348 6.576C150.9 6.16533 150.676 5.652 150.676 5.036ZM155.072 9.488V25H151.124V9.488H155.072ZM163.992 9.292C165.877 9.292 167.389 9.768 168.528 10.72C169.666 11.672 170.376 12.9413 170.656 14.528H166.96C166.81 13.7813 166.474 13.184 165.952 12.736C165.429 12.288 164.748 12.064 163.908 12.064C163.236 12.064 162.713 12.2227 162.34 12.54C161.966 12.8573 161.78 13.2867 161.78 13.828C161.78 14.2573 161.929 14.6027 162.228 14.864C162.526 15.1253 162.9 15.3307 163.348 15.48C163.796 15.6293 164.44 15.8067 165.28 16.012C166.456 16.2733 167.408 16.5533 168.136 16.852C168.882 17.132 169.517 17.5893 170.04 18.224C170.581 18.84 170.852 19.68 170.852 20.744C170.852 22.0693 170.329 23.1427 169.284 23.964C168.257 24.7853 166.866 25.196 165.112 25.196C163.096 25.196 161.481 24.748 160.268 23.852C159.054 22.9373 158.317 21.64 158.056 19.96H161.836C161.929 20.7253 162.265 21.332 162.844 21.78C163.422 22.2093 164.178 22.424 165.112 22.424C165.784 22.424 166.297 22.2653 166.652 21.948C167.006 21.612 167.184 21.1827 167.184 20.66C167.184 20.212 167.025 19.848 166.708 19.568C166.409 19.288 166.026 19.0733 165.56 18.924C165.112 18.7747 164.468 18.5973 163.628 18.392C162.47 18.1307 161.528 17.8693 160.8 17.608C160.09 17.328 159.474 16.8893 158.952 16.292C158.448 15.6947 158.196 14.8733 158.196 13.828C158.196 12.484 158.709 11.392 159.736 10.552C160.762 9.712 162.181 9.292 163.992 9.292Z" fill="#FFB321"/>
<path d="M127.9 48.6451C127.9 49.2684 127.667 49.7354 127.175 50.0735C125.725 51.0086 123.86 51.4755 121.606 51.4755C117.876 51.4755 115.961 49.5019 115.961 46.9049C115.961 44.4897 117.645 42.6713 121.167 42.6713C122.229 42.6713 123.109 42.7748 123.835 43.0095V42.1262C123.835 41.1658 123.291 40.6195 121.815 40.6195C121.323 40.6195 120.598 40.7495 119.666 40.9829C117.93 41.3981 116.765 40.6448 116.765 39.3728C116.765 38.5159 117.257 37.8661 118.267 37.4774C119.303 37.0622 120.495 36.854 121.815 36.854C125.881 36.854 127.901 38.6976 127.901 42.3596V48.6451H127.9ZM123.834 47.6065V45.6847C123.187 45.4765 122.487 45.373 121.762 45.373C120.597 45.373 119.975 45.9699 119.975 46.775C119.975 47.71 120.727 48.1769 121.789 48.1769C122.59 48.1782 123.264 47.9964 123.834 47.6065Z" fill="#34DE6E"/>
<path d="M142.377 49.1385C142.377 50.3852 141.471 51.3456 140.228 51.3456C139.088 51.3456 138.104 50.3588 138.104 49.1385V42.9577C138.104 41.711 137.301 41.0624 136.187 41.0624C135.384 41.0624 134.762 41.2176 134.27 41.5558V49.1385C134.27 50.3588 133.338 51.3456 132.121 51.3456C130.981 51.3456 129.971 50.3588 129.971 49.1385V39.7374C129.971 39.114 130.204 38.6206 130.696 38.2837C132.069 37.3234 133.933 36.8552 136.29 36.8552C140.305 36.8552 142.376 38.9323 142.376 42.7508V49.1385H142.377Z" fill="#34DE6E"/>
<path d="M156.984 43.6857C156.984 44.8542 156.338 45.6593 155.068 45.6593L148.567 45.6858V45.841C148.567 47.0613 149.654 47.7364 151.105 47.7364C151.856 47.7364 152.711 47.5282 153.668 47.0878C154.42 46.7496 155.041 46.7761 155.585 47.166C156.129 47.5559 156.414 48.0746 156.414 48.7244C156.414 49.4513 156 50.0494 155.171 50.5428C154.161 51.1397 152.736 51.4514 150.949 51.4514C149.188 51.4514 147.712 50.9315 146.52 49.9194C145.355 48.8809 144.682 47.5559 144.526 45.9722C144.422 44.6737 144.422 43.5052 144.526 42.4667C144.68 40.7783 145.329 39.4028 146.468 38.3895C147.633 37.3762 149.084 36.8575 150.818 36.8575C152.657 36.8575 154.133 37.4292 155.273 38.5459C156.413 39.6627 156.982 41.1947 156.982 43.09V43.6857H156.984ZM152.893 42.9059C153.074 42.9059 153.152 42.8024 153.152 42.5942C153.179 41.244 152.323 40.3089 150.9 40.3089C149.345 40.3089 148.569 41.3222 148.569 42.9059H152.893Z" fill="#34DE6E"/>
<path d="M171.593 43.6857C171.593 44.8542 170.945 45.6593 169.676 45.6593L163.175 45.6858V45.841C163.175 47.0613 164.262 47.7364 165.713 47.7364C166.464 47.7364 167.319 47.5282 168.277 47.0878C169.028 46.7496 169.65 46.7761 170.193 47.166C170.737 47.5559 171.023 48.0746 171.023 48.7244C171.023 49.4513 170.609 50.0494 169.779 50.5428C168.769 51.1397 167.344 51.4514 165.557 51.4514C163.796 51.4514 162.32 50.9315 161.128 49.9194C159.963 48.8809 159.29 47.5559 159.134 45.9722C159.031 44.6737 159.031 43.5052 159.134 42.4667C159.289 40.7783 159.937 39.4028 161.076 38.3895C162.241 37.3762 163.692 36.8575 165.426 36.8575C167.265 36.8575 168.741 37.4292 169.881 38.5459C171.021 39.6627 171.59 41.1947 171.59 43.09V43.6857H171.593ZM167.5 42.9059C167.681 42.9059 167.759 42.8024 167.759 42.5942C167.786 41.244 166.93 40.3089 165.507 40.3089C163.952 40.3089 163.176 41.3222 163.176 42.9059H167.5Z" fill="#34DE6E"/>
<path d="M109.739 51.5284C106.398 51.5284 104.662 49.2696 104.662 45.9446V36.1283C104.662 34.8816 105.569 33.8948 106.787 33.8948C107.952 33.8948 108.936 34.9081 108.936 36.1283V37.712H111.889C113.002 37.712 113.883 38.5436 113.883 39.6856C113.883 40.7242 112.951 41.581 111.889 41.581H108.936V45.8399C108.936 47.0084 109.428 47.58 110.439 47.58C110.723 47.58 111.164 47.5018 111.785 47.3466C113.262 47.0084 114.272 47.8917 114.272 49.1384C114.272 49.97 113.91 50.5669 113.158 50.9303C112.354 51.3202 111.215 51.5284 109.739 51.5284Z" fill="#34DE6E"/>
<path d="M103.558 41.581H109.298C110.352 41.581 111.214 40.717 111.214 39.6604V39.6327C111.214 38.5761 110.352 37.712 109.298 37.712H103.558C102.504 37.712 101.643 38.5761 101.643 39.6327V39.6604C101.643 40.717 102.504 41.581 103.558 41.581Z" fill="#34DE6E"/>
<path d="M99.4826 43.8145C99.4826 44.983 98.8345 45.7881 97.5659 45.7881L91.0647 45.8146V45.9698C91.0647 47.1901 92.152 47.8652 93.603 47.8652C94.3543 47.8652 95.2088 47.657 96.1677 47.2153C96.919 46.8772 97.5407 46.9037 98.0844 47.2936C98.628 47.6835 98.9137 48.2021 98.9137 48.852C98.9137 49.5789 98.4996 50.177 97.6703 50.6704C96.6598 51.2672 95.2352 51.5789 93.4482 51.5789C91.6875 51.5789 90.2101 51.0591 89.0196 50.047C87.8542 49.0084 87.1809 47.6835 87.0249 46.0998C86.9217 44.8013 86.9217 43.6328 87.0249 42.5942C87.1797 40.9058 87.8278 39.5291 88.968 38.5171C90.1333 37.5038 91.5843 36.9851 93.3185 36.9851C95.1572 36.9851 96.6334 37.5567 97.7735 38.6735C98.9137 39.7903 99.4826 41.3222 99.4826 43.2188V43.8145ZM95.39 43.0359C95.5712 43.0359 95.6493 42.9324 95.6493 42.7242C95.6757 41.374 94.8199 40.4389 93.3954 40.4389C91.8412 40.4389 91.0647 41.4522 91.0647 43.0359H95.39Z" fill="#34DE6E"/>
</svg>
