<svg width="51" height="51" viewBox="0 0 51 51" fill="none" xmlns="http://www.w3.org/2000/svg">
<path d="M7.51923 7.51533H12.4231V4.24609H5.88462C4.98191 4.24609 4.25 4.978 4.25 5.88071V12.4192H7.51923V7.51533Z" fill="white"/>
<path d="M43.482 12.4192H46.7512V5.88071C46.7512 4.978 46.0193 4.24609 45.1166 4.24609H38.5781V7.51533H43.482V12.4192Z" fill="white"/>
<path d="M5.88364 46.7414H12.4221V43.4722H7.51825V38.5684H4.24902V45.1068C4.24902 46.0095 4.98093 46.7414 5.88364 46.7414Z" fill="white"/>
<path d="M43.482 43.4722H38.5781V46.7414H45.1166C46.0193 46.7414 46.7512 46.0095 46.7512 45.1068V38.5684H43.482V43.4722Z" fill="white"/>
<path d="M23.7787 11.1387H12.1155C11.5787 11.1387 11.1436 11.5739 11.1436 12.1106V23.7738C11.1436 24.3106 11.5787 24.7457 12.1155 24.7457H23.7787C24.3154 24.7457 24.7506 24.3106 24.7506 23.7738V12.1106C24.7506 11.5739 24.3154 11.1387 23.7787 11.1387ZM22.8068 22.8019H13.0874V13.0825H22.8068V22.8019Z" fill="white"/>
<path d="M16.0032 20.8589H19.8909C20.4277 20.8589 20.8629 20.4238 20.8629 19.887V15.9993C20.8629 15.4625 20.4277 15.0273 19.8909 15.0273H16.0032C15.4664 15.0273 15.0312 15.4625 15.0312 15.9993V19.887C15.0312 20.4238 15.4664 20.8589 16.0032 20.8589ZM16.9751 16.9712H18.919V18.9151H16.9751V16.9712Z" fill="white"/>
<path d="M23.7787 26.6914H12.1155C11.5787 26.6914 11.1436 27.1266 11.1436 27.6633V39.3265C11.1436 39.8633 11.5787 40.2985 12.1155 40.2985H23.7787C24.3154 40.2985 24.7506 39.8633 24.7506 39.3265V27.6633C24.7506 27.1266 24.3154 26.6914 23.7787 26.6914ZM22.8068 38.3546H13.0874V28.6353H22.8068V38.3546Z" fill="white"/>
<path d="M16.0032 36.4117H19.8909C20.4277 36.4117 20.8629 35.9765 20.8629 35.4397V31.552C20.8629 31.0153 20.4277 30.5801 19.8909 30.5801H16.0032C15.4664 30.5801 15.0312 31.0153 15.0312 31.552V35.4397C15.0312 35.9765 15.4664 36.4117 16.0032 36.4117ZM16.9751 32.5239H18.919V34.4678H16.9751V32.5239Z" fill="white"/>
<path d="M39.3285 11.1387H27.6653C27.1285 11.1387 26.6934 11.5739 26.6934 12.1106V19.8861H28.6372V13.0825H38.3566V22.8019H28.6372V21.8299H26.6934V23.7738C26.6934 24.3106 27.1285 24.7457 27.6653 24.7457H39.3285C39.8652 24.7457 40.3004 24.3106 40.3004 23.7738V12.1106C40.3004 11.5739 39.8652 11.1387 39.3285 11.1387Z" fill="white"/>
<path d="M35.4427 20.8589C35.9794 20.8589 36.4146 20.4238 36.4146 19.887V15.9993C36.4146 15.4625 35.9794 15.0273 35.4427 15.0273H31.5549C31.0182 15.0273 30.583 15.4625 30.583 15.9993V19.887C30.583 20.4238 31.0182 20.8589 31.5549 20.8589H35.4427ZM32.5269 16.9712H34.4707V18.9151H32.5269V16.9712Z" fill="white"/>
<circle cx="33.5" cy="33.5" r="6.5" fill="white"/>
<path d="M34.9199 33.7686L34.1324 34.6321L34.1324 30.6935C34.1324 30.3105 33.8492 30 33.4998 30C33.1505 30 32.8673 30.3105 32.8673 30.6935L32.8673 34.6321L32.0799 33.7688C31.9563 33.6333 31.7945 33.5657 31.6326 33.5657C31.4707 33.5657 31.3089 33.6335 31.1853 33.7688C30.9382 34.0397 30.9382 34.4788 31.1853 34.7496L33.0527 36.7969C33.1714 36.9271 33.3323 37 33.5 37C33.6677 37 33.8286 36.9269 33.9473 36.7969L35.8147 34.7494C36.0618 34.4786 36.0618 34.0395 35.8147 33.7686C35.5677 33.4979 35.1672 33.4979 34.9199 33.7686Z" fill="#48F382"/>
</svg>
