<svg width="88" height="42" viewBox="0 0 88 42" fill="none" xmlns="http://www.w3.org/2000/svg">
<path d="M62.49 37.07C62.49 37.43 62.4 37.7633 62.22 38.07C62.04 38.37 61.7733 38.6133 61.42 38.8C61.0667 38.98 60.6367 39.07 60.13 39.07C59.63 39.07 59.1833 38.9867 58.79 38.82C58.3967 38.6467 58.08 38.4 57.84 38.08C57.6067 37.76 57.4733 37.3867 57.44 36.96H58.94C58.9733 37.2467 59.0867 37.4867 59.28 37.68C59.48 37.8667 59.7433 37.96 60.07 37.96C60.3633 37.96 60.5867 37.8833 60.74 37.73C60.9 37.57 60.98 37.3667 60.98 37.12C60.98 36.9 60.9167 36.72 60.79 36.58C60.6633 36.4333 60.5033 36.3167 60.31 36.23C60.1167 36.1433 59.85 36.0433 59.51 35.93C59.07 35.7833 58.71 35.64 58.43 35.5C58.15 35.3533 57.91 35.1433 57.71 34.87C57.5167 34.5967 57.42 34.24 57.42 33.8C57.42 33.1933 57.6367 32.7167 58.07 32.37C58.51 32.0167 59.09 31.84 59.81 31.84C60.5567 31.84 61.15 32.02 61.59 32.38C62.0367 32.74 62.29 33.22 62.35 33.82H60.83C60.79 33.5667 60.6833 33.36 60.51 33.2C60.3367 33.0333 60.1 32.95 59.8 32.95C59.54 32.95 59.33 33.02 59.17 33.16C59.01 33.2933 58.93 33.49 58.93 33.75C58.93 33.9567 58.99 34.13 59.11 34.27C59.2367 34.4033 59.3933 34.5133 59.58 34.6C59.7733 34.6867 60.0333 34.7833 60.36 34.89C60.8133 35.05 61.18 35.2 61.46 35.34C61.7467 35.48 61.99 35.69 62.19 35.97C62.39 36.25 62.49 36.6167 62.49 37.07ZM66.4887 37.79V39H65.7487C65.1287 39 64.652 38.85 64.3187 38.55C63.992 38.25 63.8287 37.75 63.8287 37.05V34.65H63.0587V33.46H63.8287V32.09H65.2387V33.46H66.4787V34.65H65.2387V37.07C65.2387 37.3367 65.292 37.5233 65.3987 37.63C65.5053 37.7367 65.6853 37.79 65.9387 37.79H66.4887ZM70.0633 33.39C70.6033 33.39 71.0866 33.5033 71.5133 33.73C71.9466 33.9567 72.2866 34.2867 72.5333 34.72C72.7799 35.1467 72.9033 35.65 72.9033 36.23C72.9033 36.81 72.7799 37.3133 72.5333 37.74C72.2866 38.1667 71.9466 38.4967 71.5133 38.73C71.0866 38.9567 70.6033 39.07 70.0633 39.07C69.5233 39.07 69.0366 38.9567 68.6033 38.73C68.1766 38.4967 67.8399 38.1667 67.5933 37.74C67.3466 37.3133 67.2233 36.81 67.2233 36.23C67.2233 35.65 67.3466 35.1467 67.5933 34.72C67.8399 34.2867 68.1766 33.9567 68.6033 33.73C69.0366 33.5033 69.5233 33.39 70.0633 33.39ZM70.0633 34.61C69.6699 34.61 69.3366 34.75 69.0633 35.03C68.7899 35.3033 68.6533 35.7033 68.6533 36.23C68.6533 36.7567 68.7899 37.16 69.0633 37.44C69.3366 37.7133 69.6699 37.85 70.0633 37.85C70.4566 37.85 70.7899 37.7133 71.0633 37.44C71.3366 37.16 71.4733 36.7567 71.4733 36.23C71.4733 35.7033 71.3366 35.3033 71.0633 35.03C70.7899 34.75 70.4566 34.61 70.0633 34.61ZM77.1398 39L75.3098 36.58V39H73.8998V31.6H75.3098V35.76L77.1298 33.46H78.7998L76.4698 36.22L78.8598 39H77.1398ZM79.3843 31.87C79.3843 31.6433 79.4643 31.46 79.6243 31.32C79.7843 31.1733 79.9943 31.1 80.2543 31.1C80.5143 31.1 80.7243 31.1733 80.8843 31.32C81.0443 31.46 81.1243 31.6433 81.1243 31.87C81.1243 32.09 81.0443 32.2733 80.8843 32.42C80.7243 32.56 80.5143 32.63 80.2543 32.63C79.9943 32.63 79.7843 32.56 79.6243 32.42C79.4643 32.2733 79.3843 32.09 79.3843 31.87ZM80.9543 33.46V39H79.5443V33.46H80.9543ZM84.1398 33.39C84.8132 33.39 85.3532 33.56 85.7598 33.9C86.1665 34.24 86.4198 34.6933 86.5198 35.26H85.1998C85.1465 34.9933 85.0265 34.78 84.8398 34.62C84.6532 34.46 84.4098 34.38 84.1098 34.38C83.8698 34.38 83.6832 34.4367 83.5498 34.55C83.4165 34.6633 83.3498 34.8167 83.3498 35.01C83.3498 35.1633 83.4032 35.2867 83.5098 35.38C83.6165 35.4733 83.7498 35.5467 83.9098 35.6C84.0698 35.6533 84.2998 35.7167 84.5998 35.79C85.0198 35.8833 85.3598 35.9833 85.6198 36.09C85.8865 36.19 86.1132 36.3533 86.2998 36.58C86.4932 36.8 86.5898 37.1 86.5898 37.48C86.5898 37.9533 86.4032 38.3367 86.0298 38.63C85.6632 38.9233 85.1665 39.07 84.5398 39.07C83.8198 39.07 83.2432 38.91 82.8098 38.59C82.3765 38.2633 82.1132 37.8 82.0198 37.2H83.3698C83.4032 37.4733 83.5232 37.69 83.7298 37.85C83.9365 38.0033 84.2065 38.08 84.5398 38.08C84.7798 38.08 84.9632 38.0233 85.0898 37.91C85.2165 37.79 85.2798 37.6367 85.2798 37.45C85.2798 37.29 85.2232 37.16 85.1098 37.06C85.0032 36.96 84.8665 36.8833 84.6998 36.83C84.5398 36.7767 84.3098 36.7133 84.0098 36.64C83.5965 36.5467 83.2598 36.4533 82.9998 36.36C82.7465 36.26 82.5265 36.1033 82.3398 35.89C82.1598 35.6767 82.0698 35.3833 82.0698 35.01C82.0698 34.53 82.2532 34.14 82.6198 33.84C82.9865 33.54 83.4932 33.39 84.1398 33.39Z" fill="#F4F4F4"/>
<path d="M48.7276 22.3685C48.7276 22.9204 48.5215 23.3338 48.0859 23.6331C46.8024 24.4609 45.1512 24.8743 43.1558 24.8743C39.8535 24.8743 38.1577 23.1271 38.1577 20.8279C38.1577 18.6897 39.6484 17.0798 42.7669 17.0798C43.7072 17.0798 44.4861 17.1715 45.1289 17.3792V16.5972C45.1289 15.747 44.6476 15.2633 43.3407 15.2633C42.905 15.2633 42.2633 15.3784 41.4377 15.5851C39.9013 15.9526 38.8696 15.2857 38.8696 14.1596C38.8696 13.401 39.3052 12.8257 40.1999 12.4816C41.1168 12.114 42.1719 11.9297 43.3407 11.9297C46.9405 11.9297 48.7287 13.5619 48.7287 16.8039V22.3685H48.7276ZM45.1278 21.4491V19.7476C44.5551 19.5633 43.9357 19.4717 43.2939 19.4717C42.2622 19.4717 41.7118 20.0001 41.7118 20.7129C41.7118 21.5407 42.377 21.9541 43.3173 21.9541C44.0271 21.9551 44.6231 21.7942 45.1278 21.4491Z" fill="white"/>
<path d="M61.5449 22.8052C61.5449 23.909 60.7427 24.7592 59.6419 24.7592C58.6325 24.7592 57.7613 23.8855 57.7613 22.8052V17.3333C57.7613 16.2296 57.0504 15.6553 56.0644 15.6553C55.3536 15.6553 54.8032 15.7927 54.3676 16.0921V22.8052C54.3676 23.8855 53.542 24.7592 52.4646 24.7592C51.4552 24.7592 50.5616 23.8855 50.5616 22.8052V14.4823C50.5616 13.9304 50.7678 13.4936 51.2034 13.1953C52.4189 12.3451 54.069 11.9307 56.1558 11.9307C59.7099 11.9307 61.5438 13.7695 61.5438 17.1501V22.8052H61.5449Z" fill="white"/>
<path d="M74.4767 17.9777C74.4767 19.0122 73.904 19.725 72.7798 19.725L67.0242 19.7484V19.8858C67.0242 20.9662 67.9868 21.5639 69.2714 21.5639C69.9366 21.5639 70.6931 21.3795 71.541 20.9896C72.2061 20.6902 72.7565 20.7137 73.2378 21.0589C73.7191 21.404 73.972 21.8632 73.972 22.4385C73.972 23.082 73.6054 23.6116 72.8712 24.0484C71.9766 24.5768 70.7154 24.8527 69.1333 24.8527C67.5746 24.8527 66.2677 24.3925 65.2126 23.4965C64.1809 22.577 63.5848 21.404 63.4467 20.002C63.3553 18.8524 63.3553 17.8179 63.4467 16.8985C63.5838 15.4037 64.1575 14.1859 65.1659 13.2889C66.1976 12.3918 67.4821 11.9326 69.0175 11.9326C70.6453 11.9326 71.9521 12.4387 72.9615 13.4274C73.9709 14.4161 74.4746 15.7723 74.4746 17.4503V17.9777H74.4767ZM70.8546 17.2873C71.015 17.2873 71.0841 17.1957 71.0841 17.0114C71.1074 15.816 70.3499 14.9882 69.0897 14.9882C67.7138 14.9882 67.0263 15.8853 67.0263 17.2873H70.8546Z" fill="white"/>
<path d="M87.4097 17.9777C87.4097 19.0122 86.8359 19.725 85.7128 19.725L79.9572 19.7484V19.8858C79.9572 20.9662 80.9198 21.5639 82.2044 21.5639C82.8695 21.5639 83.6261 21.3795 84.4739 20.9896C85.1391 20.6902 85.6895 20.7137 86.1708 21.0589C86.6521 21.404 86.905 21.8632 86.905 22.4385C86.905 23.082 86.5384 23.6116 85.8042 24.0484C84.9096 24.5768 83.6484 24.8527 82.0663 24.8527C80.5076 24.8527 79.2007 24.3925 78.1456 23.4965C77.1139 22.577 76.5178 21.404 76.3797 20.002C76.2883 18.8524 76.2883 17.8179 76.3797 16.8985C76.5168 15.4037 77.0905 14.1859 78.0988 13.2889C79.1306 12.3918 80.4151 11.9326 81.9505 11.9326C83.5782 11.9326 84.8851 12.4387 85.8945 13.4274C86.9039 14.4161 87.4076 15.7723 87.4076 17.4503V17.9777H87.4097ZM83.7865 17.2873C83.9469 17.2873 84.016 17.1957 84.016 17.0114C84.0394 15.816 83.2818 14.9882 82.0217 14.9882C80.6457 14.9882 79.9583 15.8853 79.9583 17.2873H83.7865Z" fill="white"/>
<path d="M32.6497 24.9209C29.6917 24.9209 28.1553 22.9211 28.1553 19.9774V11.287C28.1553 10.1832 28.9575 9.30957 30.0359 9.30957C31.0676 9.30957 31.9389 10.2066 31.9389 11.287V12.689H34.5527C35.5387 12.689 36.3186 13.4252 36.3186 14.4363C36.3186 15.3557 35.493 16.1143 34.5527 16.1143H31.9389V19.8848C31.9389 20.9193 32.3745 21.4253 33.2692 21.4253C33.521 21.4253 33.9109 21.3561 34.4613 21.2186C35.7682 20.9193 36.6628 21.7013 36.6628 22.805C36.6628 23.5412 36.342 24.0696 35.6768 24.3914C34.9649 24.7366 33.9566 24.9209 32.6497 24.9209Z" fill="white"/>
<path d="M27.1777 16.1147H32.2597C33.1926 16.1147 33.9555 15.3498 33.9555 14.4143V14.3898C33.9555 13.4544 33.1926 12.6895 32.2597 12.6895H27.1777C26.2448 12.6895 25.4819 13.4544 25.4819 14.3898V14.4143C25.4819 15.3498 26.2448 16.1147 27.1777 16.1147Z" fill="white"/>
<path d="M0.336426 29.3944C0.336426 29.3944 11.9986 31.6978 19.416 24.2613C26.8335 16.8248 24.5353 5.12988 24.5353 5.12988L0.336426 29.3944Z" fill="#F4F4F4"/>
<path d="M24.5352 5.13098C24.5352 5.13098 12.873 2.82758 5.45562 10.2641C-1.96181 17.7006 0.336411 29.3944 0.336411 29.3944L24.5352 5.13098Z" fill="#F4F4F4"/>
<path d="M0.336426 29.3944C0.336426 29.3944 12.209 28.8127 17.6204 19.8037C23.0318 10.7947 17.9933 0 17.9933 0L0.336426 29.3944Z" fill="white"/>
<path d="M17.512 18.0921C17.512 19.1266 16.9383 19.8393 15.8152 19.8393L10.0595 19.8628V20.0002C10.0595 21.0805 11.0222 21.6782 12.3067 21.6782C12.9719 21.6782 13.7284 21.4939 14.5773 21.1029C15.2425 20.8035 15.7929 20.8269 16.2742 21.1721C16.7555 21.5173 17.0084 21.9765 17.0084 22.5518C17.0084 23.1953 16.6418 23.7248 15.9076 24.1616C15.013 24.6901 13.7518 24.966 12.1697 24.966C10.611 24.966 9.303 24.5058 8.24899 23.6098C7.21728 22.6903 6.62121 21.5173 6.48308 20.1153C6.39171 18.9657 6.39171 17.9312 6.48308 17.0117C6.62015 15.517 7.19391 14.2982 8.2033 13.4022C9.235 12.5051 10.5196 12.0459 12.0549 12.0459C13.6827 12.0459 14.9896 12.552 15.999 13.5407C17.0084 14.5294 17.512 15.8856 17.512 17.5647V18.0921V18.0921ZM13.8888 17.4027C14.0493 17.4027 14.1183 17.3111 14.1183 17.1268C14.1417 15.9314 13.3841 15.1036 12.1229 15.1036C10.747 15.1036 10.0595 16.0007 10.0595 17.4027H13.8888V17.4027Z" fill="#68C93E"/>
</svg>
