<svg width="51" height="51" viewBox="0 0 51 51" fill="none" xmlns="http://www.w3.org/2000/svg">
<path d="M7.51923 7.51533H12.4231V4.24609H5.88462C4.98191 4.24609 4.25 4.978 4.25 5.88071V12.4192H7.51923V7.51533Z" fill="white"/>
<path d="M43.482 12.4192H46.7512V5.88071C46.7512 4.978 46.0193 4.24609 45.1166 4.24609H38.5781V7.51533H43.482V12.4192Z" fill="white"/>
<path d="M5.88364 46.7414H12.4221V43.4722H7.51825V38.5684H4.24902V45.1068C4.24902 46.0095 4.98093 46.7414 5.88364 46.7414Z" fill="white"/>
<path d="M43.482 43.4722H38.5781V46.7414H45.1166C46.0193 46.7414 46.7512 46.0095 46.7512 45.1068V38.5684H43.482V43.4722Z" fill="white"/>
<path d="M39.6351 11H27.9719C27.4352 11 27 11.4352 27 11.9719V23.6351C27 24.1719 27.4352 24.6071 27.9719 24.6071H39.6351C40.1719 24.6071 40.6071 24.1719 40.6071 23.6351V11.9719C40.6071 11.4352 40.1719 11 39.6351 11ZM38.6632 22.6632H28.9439V12.9439H38.6632V22.6632Z" fill="white"/>
<path d="M31.8596 20.7203H35.7474C36.2841 20.7203 36.7193 20.2851 36.7193 19.7483V15.8606C36.7193 15.3239 36.2841 14.8887 35.7474 14.8887H31.8596C31.3229 14.8887 30.8877 15.3239 30.8877 15.8606V19.7483C30.8877 20.2851 31.3229 20.7203 31.8596 20.7203ZM32.8316 16.8325H34.7754V18.7764H32.8316V16.8325Z" fill="white"/>
<path d="M24.7787 27H13.1155C12.5787 27 12.1436 27.4352 12.1436 27.9719V39.6351C12.1436 40.1719 12.5787 40.6071 13.1155 40.6071H24.7787C25.3154 40.6071 25.7506 40.1719 25.7506 39.6351V27.9719C25.7506 27.4352 25.3154 27 24.7787 27ZM23.8068 38.6632H14.0874V28.9439H23.8068V38.6632Z" fill="white"/>
<path d="M17.0032 36.7203H20.8909C21.4277 36.7203 21.8629 36.2851 21.8629 35.7483V31.8606C21.8629 31.3239 21.4277 30.8887 20.8909 30.8887H17.0032C16.4664 30.8887 16.0312 31.3239 16.0312 31.8606V35.7483C16.0312 36.2851 16.4664 36.7203 17.0032 36.7203ZM17.9751 32.8325H19.919V34.7764H17.9751V32.8325Z" fill="white"/>
<path d="M39.6351 27H27.9719C27.4352 27 27 27.4352 27 27.9719V35.7474H28.9439V28.9439H38.6632V38.6632H28.9439V37.6913H27V39.6351C27 40.1719 27.4352 40.6071 27.9719 40.6071H39.6351C40.1719 40.6071 40.6071 40.1719 40.6071 39.6351V27.9719C40.6071 27.4352 40.1719 27 39.6351 27Z" fill="white"/>
<path d="M35.7493 36.7203C36.2861 36.7203 36.7213 36.2851 36.7213 35.7483V31.8606C36.7213 31.3239 36.2861 30.8887 35.7493 30.8887H31.8616C31.3248 30.8887 30.8896 31.3239 30.8896 31.8606V35.7483C30.8896 36.2851 31.3248 36.7203 31.8616 36.7203H35.7493ZM32.8335 32.8325H34.7774V34.7764H32.8335V32.8325Z" fill="white"/>
<circle cx="18.5" cy="18.5" r="6.5" fill="white"/>
<path d="M17.0801 18.2314L17.8676 17.3679V21.3065C17.8676 21.6895 18.1508 22 18.5002 22C18.8495 22 19.1327 21.6895 19.1327 21.3065V17.3679L19.9201 18.2312C20.0437 18.3667 20.2055 18.4343 20.3674 18.4343C20.5293 18.4343 20.6911 18.3665 20.8147 18.2312C21.0618 17.9603 21.0618 17.5212 20.8147 17.2504L18.9473 15.2031C18.8286 15.0729 18.6677 15 18.5 15C18.3323 15 18.1714 15.0731 18.0527 15.2031L16.1853 17.2506C15.9382 17.5214 15.9382 17.9605 16.1853 18.2314C16.4323 18.5021 16.8328 18.5021 17.0801 18.2314Z" fill="#FFC962"/>
</svg>
