<svg width="40" height="40" viewBox="0 0 40 40" fill="none" xmlns="http://www.w3.org/2000/svg">
<rect x="4" y="5" width="25.7778" height="24.8889" rx="3" fill="#34DE6E"/>
<rect x="7.55554" y="21" width="8" height="1.77778" rx="0.888889" fill="white"/>
<rect x="7.55554" y="24.5557" width="4.44444" height="1.77778" rx="0.888889" fill="white"/>
<path d="M20.0001 9V13L16.8889 11L13.7778 13V9V5H20.0001V9Z" fill="white"/>
<circle cx="26.6667" cy="25.889" r="9.08333" fill="#48F382" stroke="white" stroke-width="0.5"/>
<circle cx="26.6667" cy="25.8889" r="5.77778" fill="white"/>
<path d="M25.4045 25.6502L26.1046 24.8826V28.3836C26.1046 28.7241 26.3563 29.0001 26.6668 29.0001C26.9774 29.0001 27.2291 28.7241 27.2291 28.3836V24.8826L27.929 25.65C28.0389 25.7705 28.1827 25.8306 28.3266 25.8306C28.4705 25.8306 28.6143 25.7703 28.7242 25.65C28.9438 25.4092 28.9438 25.0189 28.7242 24.7782L27.0643 22.9584C26.9587 22.8426 26.8158 22.7778 26.6667 22.7778C26.5176 22.7778 26.3746 22.8428 26.2691 22.9584L24.6092 24.7783C24.3896 25.0191 24.3896 25.4094 24.6092 25.6502C24.8288 25.8908 25.1847 25.8908 25.4045 25.6502Z" fill="#FFB321"/>
</svg>
