<svg width="168" height="168" viewBox="0 0 168 168" fill="none" xmlns="http://www.w3.org/2000/svg">
<path d="M0 4C0 1.79087 1.79086 0 4 0H164C166.209 0 168 1.79086 168 4V168H0V4Z" fill="#E0E0E0"/>
<path d="M57.5117 114.77C57.5117 114.77 83.4603 119.882 99.9626 103.38C116.465 86.8778 111.352 60.9292 111.352 60.9292L57.5117 114.77Z" fill="#B3B3B3"/>
<path d="M111.352 60.9294C111.352 60.9294 85.4038 55.8169 68.9016 72.3191C52.3994 88.8213 57.512 114.77 57.512 114.77L111.352 60.9294Z" fill="#B2B2B2"/>
<path d="M57.5117 114.769C57.5117 114.769 83.9267 113.48 95.9675 93.4873C108.008 73.4946 96.7962 49.5435 96.7962 49.5435L57.5117 114.769Z" fill="#C0C0C0"/>
<path d="M95.7253 89.6885C95.7253 91.9837 94.4494 93.5662 91.9503 93.5662L79.1454 93.6175V93.924C79.1454 96.3219 81.2881 97.6477 84.145 97.6477C85.6248 97.6477 87.3085 97.24 89.196 96.3718C90.6758 95.7089 91.9004 95.7602 92.971 96.5243C94.0416 97.2899 94.6034 98.3092 94.6034 99.5851C94.6034 101.014 93.7865 102.187 92.1541 103.156C90.1639 104.33 87.3583 104.941 83.8385 104.941C80.37 104.941 77.4617 103.92 75.1151 101.932C72.8199 99.8916 71.4926 97.2884 71.1861 94.1777C70.9822 91.6273 70.9822 89.3306 71.1861 87.2906C71.4926 83.9746 72.7671 81.2702 75.0125 79.2814C77.3077 77.2913 80.1646 76.272 83.5833 76.272C87.2058 76.272 90.1141 77.3939 92.358 79.588C94.6019 81.782 95.7253 84.7915 95.7253 88.5152V89.6885V89.6885ZM87.6649 88.1573C88.0212 88.1573 88.1752 87.9535 88.1752 87.5458C88.2266 84.8927 86.5429 83.0565 83.7373 83.0565C80.6765 83.0565 79.1454 85.0467 79.1454 88.1588H87.6649V88.1573Z" fill="white"/>
</svg>
