<svg width="60" height="42" viewBox="0 0 60 42" fill="none" xmlns="http://www.w3.org/2000/svg">
<path d="M48.5581 6.48828H10.8877C8.67856 6.48828 6.8877 8.27915 6.8877 10.4883V37.675C6.8877 39.8841 8.67856 41.675 10.8877 41.675H48.5581C50.7672 41.675 52.5581 39.8841 52.5581 37.675V10.4883C52.5581 8.27914 50.7672 6.48828 48.5581 6.48828Z" fill="white"/>
<path d="M59.4449 14.0114H0L4.9732 0H54.4717L59.4449 14.0114Z" fill="white"/>
<path d="M8.50506 14.0114H0L4.9732 0H11.9174L8.50506 14.0114Z" fill="#F4F4F4"/>
<path d="M25.4233 14.0114H17.0107L19.0384 0H26.0697L25.4233 14.0114Z" fill="#F4F4F4"/>
<path d="M42.4344 14.0114H33.9293L33.1006 0H40.2244L42.4344 14.0114Z" fill="#F4F4F4"/>
<path d="M59.4447 14.0114H50.9396L47.3477 0H54.4715L59.4447 14.0114Z" fill="#F4F4F4"/>
<path d="M8.50488 14.0117C8.50488 16.3605 10.4089 18.2646 12.7578 18.2646C15.1066 18.2646 17.0106 16.3605 17.0106 14.0117H8.50488Z" fill="white"/>
<path d="M16.918 14.0117C16.918 16.3605 18.822 18.2646 21.1708 18.2646C23.5197 18.2646 25.4237 16.3605 25.4237 14.0117H16.918Z" fill="#F4F4F4"/>
<path d="M25.4238 14.0117C25.4238 16.3605 27.3279 18.2646 29.6767 18.2646C32.0255 18.2646 33.9296 16.3605 33.9296 14.0117H25.4238Z" fill="white"/>
<path d="M33.9287 14.0117C33.9287 16.3605 35.8328 18.2646 38.1816 18.2646C40.5304 18.2646 42.4345 16.3605 42.4345 14.0117H33.9287Z" fill="#F4F4F4"/>
<path d="M42.4346 14.0117C42.4346 16.3605 44.3386 18.2646 46.6874 18.2646C49.0363 18.2646 50.9403 16.3605 50.9403 14.0117H42.4346Z" fill="white"/>
<path d="M50.9395 14.0117C50.9395 16.3605 52.8435 18.2646 55.1923 18.2646C57.5411 18.2646 59.4452 16.3605 59.4452 14.0117H50.9395Z" fill="#F4F4F4"/>
<path d="M0 14.0117C0 16.3605 1.90406 18.2646 4.25288 18.2646C6.60169 18.2646 8.50575 16.3605 8.50575 14.0117H0Z" fill="#F4F4F4"/>
<path d="M23.5361 36.4431C23.5361 36.4431 29.6815 37.6536 33.5901 33.7455C37.4987 29.8374 36.2876 23.6914 36.2876 23.6914L23.5361 36.4431Z" fill="#4DF486"/>
<path d="M36.4649 23.8685C36.4649 23.8685 30.3196 22.658 26.411 26.5662C22.5024 30.4745 23.7134 36.6202 23.7134 36.6202L36.4649 23.8685Z" fill="#4DF486"/>
<path d="M23.5361 36.6213C23.5361 36.6213 29.6597 36.3116 32.4507 31.5149C35.2417 26.7182 32.643 20.9707 32.643 20.9707L23.5361 36.6213Z" fill="#6CFC9D"/>
<path d="M32.3822 30.6393C32.3822 31.1297 32.1007 31.4675 31.5498 31.4675L28.7265 31.4786V31.5438C28.7265 32.0559 29.1987 32.3392 29.8288 32.3392C30.1551 32.3392 30.5262 32.2518 30.9426 32.0665C31.2689 31.9246 31.5389 31.9357 31.775 32.0993C32.0111 32.2629 32.1351 32.4806 32.1351 32.7533C32.1351 33.0583 31.9553 33.3093 31.5952 33.5163C31.1563 33.7668 30.5376 33.8976 29.7616 33.8976C28.997 33.8976 28.3554 33.6794 27.8383 33.2547C27.3322 32.8189 27.0399 32.2629 26.9721 31.5983C26.9273 31.0534 26.9273 30.5631 26.9721 30.1273C27.0393 29.4187 27.3208 28.841 27.8159 28.4163C28.322 27.9911 28.9521 27.7734 29.7053 27.7734C30.5038 27.7734 31.1448 28.0133 31.64 28.482C32.1351 28.9506 32.3822 29.5935 32.3822 30.3893V30.6393ZM30.6049 30.3126C30.6836 30.3126 30.7175 30.2692 30.7175 30.1818C30.7289 29.6152 30.3573 29.2228 29.7386 29.2228C29.0637 29.2228 28.7265 29.648 28.7265 30.3126H30.6049Z" fill="white"/>
</svg>
